<?xml version="1.0" standalone="no"?>
<!DOCTYPE svg PUBLIC "-//W3C//DTD SVG 20010904//EN"
 "http://www.w3.org/TR/2001/REC-SVG-20010904/DTD/svg10.dtd">
<svg version="1.0" xmlns="http://www.w3.org/2000/svg"
 width="2000.000000pt" height="896.000000pt" viewBox="0 0 2000.000000 896.000000"
 preserveAspectRatio="xMidYMid meet">

<g transform="translate(0.000000,896.000000) scale(0.100000,-0.100000)"
fill="#000000" stroke="none">
<path d="M275 6423 c-121 -43 -187 -102 -239 -213 l-31 -65 0 -1660 0 -1660
27 -57 c35 -76 104 -148 181 -189 60 -33 65 -34 177 -34 109 0 118 1 170 30
56 31 2099 1513 2143 1555 5 4 -16 -1 -45 -11 -65 -23 -167 -24 -235 -4 -37
11 -117 63 -290 188 -131 95 -243 176 -250 180 -7 4 -230 -152 -555 -388
l-543 -395 -5 1228 -5 1227 -32 66 c-64 129 -191 210 -338 216 -58 3 -93 -1
-130 -14z"/>
<path d="M13035 6430 c-366 -58 -535 -290 -535 -736 l0 -120 -170 -68 -170
-68 0 -104 0 -104 170 0 170 0 0 -880 0 -880 220 0 220 0 0 880 0 880 255 0
255 0 0 170 0 170 -255 0 -255 0 0 93 c0 368 141 475 509 387 47 -11 87 -17
91 -13 8 9 110 306 110 320 0 9 -87 35 -195 59 -86 18 -338 26 -420 14z"/>
<path d="M13800 4945 l0 -1475 220 0 220 0 0 1475 0 1475 -220 0 -220 0 0
-1475z"/>
<path d="M4455 5584 c-106 -19 -232 -64 -301 -105 -206 -124 -292 -346 -232
-599 48 -203 201 -329 588 -485 275 -111 420 -197 460 -275 27 -52 27 -147 1
-198 -103 -201 -551 -200 -1023 2 l-38 16 0 -193 0 -193 73 -28 c255 -99 673
-122 948 -52 147 37 240 87 330 176 115 113 161 231 162 410 2 178 -38 277
-157 395 -95 93 -201 153 -456 255 -195 77 -344 150 -393 191 -52 43 -77 96
-77 162 0 224 382 262 843 84 l67 -26 14 32 c7 18 39 92 70 165 32 74 56 136
53 138 -15 15 -233 87 -332 110 -105 24 -144 28 -320 30 -146 3 -221 -1 -280
-12z"/>
<path d="M6774 5585 c-166 -38 -327 -143 -409 -268 -25 -39 -42 -33 -54 21 -6
26 -20 89 -32 140 l-21 92 -176 -2 -177 -3 -3 -1512 -2 -1513 221 0 221 0 -6
548 c-2 301 -8 566 -11 590 -5 26 -3 42 3 42 6 0 37 -28 69 -62 186 -196 486
-273 778 -198 291 74 495 321 576 698 15 72 22 149 26 299 6 221 -3 331 -42
491 -78 323 -260 536 -530 622 -90 29 -334 37 -431 15z m251 -375 c81 -31 179
-129 223 -221 62 -131 77 -217 77 -464 0 -195 -3 -230 -23 -310 -47 -187 -136
-316 -260 -377 -58 -29 -77 -33 -167 -36 -223 -9 -361 62 -445 227 -67 134
-100 404 -81 659 21 272 87 415 230 490 88 48 159 62 281 58 79 -2 120 -9 165
-26z"/>
<path d="M8890 5580 c-260 -55 -467 -216 -589 -458 -162 -321 -172 -837 -23
-1155 52 -111 105 -188 183 -264 81 -79 126 -112 214 -156 166 -83 307 -111
550 -111 248 1 424 31 600 105 l75 31 0 179 c0 98 -1 179 -3 179 -1 0 -43 -16
-92 -35 -192 -76 -352 -106 -558 -107 -214 -1 -336 41 -448 152 -96 95 -169
280 -169 430 l0 50 690 0 690 0 0 134 c0 273 -30 438 -110 601 -116 237 -305
379 -577 431 -106 20 -326 17 -433 -6z m319 -321 c134 -21 240 -99 301 -219
36 -71 60 -170 60 -247 l0 -53 -469 0 -470 0 6 38 c24 166 76 283 164 367 108
103 243 141 408 114z"/>
<path d="M11142 5584 c-421 -76 -670 -354 -743 -829 -18 -118 -15 -409 5 -530
86 -501 369 -759 866 -791 203 -13 429 23 577 91 l73 34 0 195 0 195 -83 -39
c-295 -138 -624 -141 -790 -6 -143 116 -207 305 -207 615 0 289 61 478 192
596 152 137 370 152 691 48 60 -19 111 -33 113 -30 2 2 33 80 68 173 54 145
61 171 49 181 -26 21 -235 82 -333 98 -117 18 -376 18 -478 -1z"/>
<path d="M15513 5585 c-347 -63 -591 -277 -696 -611 -48 -153 -61 -245 -61
-444 -1 -204 9 -282 56 -430 103 -324 313 -538 613 -625 329 -95 713 -27 944
168 162 135 259 312 317 572 24 113 30 398 10 534 -68 456 -337 758 -746 835
-100 19 -334 20 -437 1z m338 -355 c134 -25 249 -111 316 -237 123 -229 124
-704 2 -945 -58 -114 -149 -191 -270 -229 -68 -21 -233 -26 -308 -8 -172 39
-298 178 -351 386 -47 180 -47 464 0 648 54 215 179 349 357 384 66 12 190 13
254 1z"/>
<path d="M16950 5558 c0 -7 129 -480 287 -1050 l288 -1038 242 0 242 0 20 68
c11 37 77 267 146 512 137 483 186 669 240 921 42 190 44 199 54 199 4 0 34
-114 66 -252 32 -139 78 -325 102 -413 24 -88 96 -349 159 -580 63 -231 117
-428 120 -437 5 -17 26 -18 252 -18 l247 0 289 1038 c159 570 291 1043 294
1050 3 9 -44 12 -216 12 l-221 0 -15 -52 c-8 -29 -76 -289 -150 -578 -139
-537 -191 -763 -222 -952 -9 -60 -20 -108 -23 -108 -4 0 -12 39 -19 88 -21
155 -77 380 -248 997 l-168 605 -240 -2 -241 -3 -167 -585 c-170 -594 -223
-800 -255 -992 -9 -60 -20 -108 -23 -108 -3 0 -16 62 -28 137 -36 222 -95 477
-236 1028 l-133 520 -222 3 c-173 2 -221 0 -221 -10z"/>
</g>
</svg>
